<svg width="40" height="43" viewBox="0 0 40 43" fill="none" xmlns="http://www.w3.org/2000/svg">
<g filter="url(#filter0_d_190_1055)">
<circle cx="19.8431" cy="19.8431" r="19.8431" fill="#ADAFBD"/>
<circle cx="19.8431" cy="19.8431" r="18.3431" stroke="white" stroke-width="3"/>
</g>
<path d="M23.874 30.9727C22.4492 32.4071 20.1303 32.4073 18.7061 30.9727L18.5801 30.8408C17.9707 30.1651 17.6367 29.2941 17.6367 28.376C17.6368 27.4578 17.9713 26.5875 18.5811 25.9121L18.7061 25.7803L20.4863 23.9873L12.1416 23.9873C10.1231 23.987 8.50028 22.3122 8.5 20.2764L8.50488 20.0859C8.6022 18.1356 10.1861 16.5636 12.1416 16.5635L20.4834 16.5635L18.7051 14.7725L18.5801 14.6387C17.9705 13.9608 17.6357 13.0921 17.6357 12.1738C17.6359 11.1927 18.0184 10.2685 18.708 9.57519L18.709 9.57617C19.3932 8.88582 20.3128 8.50002 21.2891 8.5C22.2673 8.5 23.1875 8.88542 23.876 9.58105L23.876 9.58203L31.8857 17.6465C32.573 18.3382 32.9512 19.2615 32.9512 20.2402L32.9512 20.3135C32.9511 21.295 32.5706 22.2192 31.8799 22.9111L23.874 30.9727Z" fill="white" stroke="#494C56"/>
<defs>
<filter id="filter0_d_190_1055" x="0" y="0" width="39.686" height="42.686" filterUnits="userSpaceOnUse" color-interpolation-filters="sRGB">
<feFlood flood-opacity="0" result="BackgroundImageFix"/>
<feColorMatrix in="SourceAlpha" type="matrix" values="0 0 0 0 0 0 0 0 0 0 0 0 0 0 0 0 0 0 127 0" result="hardAlpha"/>
<feOffset dy="3"/>
<feComposite in2="hardAlpha" operator="out"/>
<feColorMatrix type="matrix" values="0 0 0 0 0.286275 0 0 0 0 0.298039 0 0 0 0 0.337255 0 0 0 1 0"/>
<feBlend mode="normal" in2="BackgroundImageFix" result="effect1_dropShadow_190_1055"/>
<feBlend mode="normal" in="SourceGraphic" in2="effect1_dropShadow_190_1055" result="shape"/>
</filter>
</defs>
</svg>
