<svg width="40" height="43" viewBox="0 0 40 43" fill="none" xmlns="http://www.w3.org/2000/svg">
<g filter="url(#filter0_d_296_409)">
<circle cx="20" cy="20" r="20" transform="matrix(-1 0 0 1 40 0)" fill="#FFF635"/>
<circle cx="20" cy="20" r="18.5" transform="matrix(-1 0 0 1 40 0)" stroke="white" stroke-width="3"/>
</g>
<path d="M22.2822 9.6543C20.8477 8.21016 18.512 8.20983 17.0781 9.6543C16.3848 10.3514 16.002 11.2827 16.002 12.2686C16.002 13.2544 16.3857 14.1851 17.0791 14.8818L18.8789 16.6963H10.46C8.42762 16.6963 6.79337 18.3827 6.79297 20.4326C6.79297 22.4841 8.42742 24.1709 10.46 24.1709H18.877L17.0781 25.9834L16.9512 26.1172C16.3375 26.7996 16.0011 27.6742 16.001 28.5986C16.001 29.5863 16.3872 30.5158 17.0811 31.2139L17.0801 31.2148C17.769 31.9102 18.6965 32.2988 19.6797 32.2988C20.6645 32.2988 21.591 31.9104 22.2842 31.21V31.209L30.3574 23.0811C31.0493 22.3846 31.4297 21.4552 31.4297 20.4697V20.3955C31.4296 19.4076 31.0475 18.4768 30.3525 17.7803L22.2822 9.6543Z" fill="white" stroke="#FFC90C"/>
<defs>
<filter id="filter0_d_296_409" x="0" y="0" width="40" height="43" filterUnits="userSpaceOnUse" color-interpolation-filters="sRGB">
<feFlood flood-opacity="0" result="BackgroundImageFix"/>
<feColorMatrix in="SourceAlpha" type="matrix" values="0 0 0 0 0 0 0 0 0 0 0 0 0 0 0 0 0 0 127 0" result="hardAlpha"/>
<feOffset dy="3"/>
<feComposite in2="hardAlpha" operator="out"/>
<feColorMatrix type="matrix" values="0 0 0 0 1 0 0 0 0 0.801083 0 0 0 0 0.0958334 0 0 0 1 0"/>
<feBlend mode="normal" in2="BackgroundImageFix" result="effect1_dropShadow_296_409"/>
<feBlend mode="normal" in="SourceGraphic" in2="effect1_dropShadow_296_409" result="shape"/>
</filter>
</defs>
</svg>
