<svg width="40" height="43" viewBox="0 0 40 43" fill="none" xmlns="http://www.w3.org/2000/svg">
<g filter="url(#filter0_d_133_702)">
<circle cx="20" cy="20" r="20" fill="#FFF635"/>
<circle cx="20" cy="20" r="18.5" stroke="white" stroke-width="3"/>
</g>
<path d="M17.7188 9.6543C19.1533 8.21015 21.489 8.20983 22.9229 9.6543C23.6162 10.3514 23.999 11.2827 23.999 12.2686C23.999 13.2544 23.6153 14.1851 22.9219 14.8818L21.1221 16.6963H29.541C31.5734 16.6963 33.2076 18.3827 33.208 20.4326C33.208 22.4841 31.5736 24.1709 29.541 24.1709H21.124L22.9229 25.9834L23.0498 26.1172C23.6634 26.7996 23.9999 27.6742 24 28.5986C24 29.5863 23.6138 30.5158 22.9199 31.2139L22.9209 31.2148C22.2319 31.9102 21.3045 32.2988 20.3213 32.2988C19.3364 32.2988 18.41 31.9104 17.7168 31.21V31.209L9.64355 23.0811C8.95164 22.3846 8.57129 21.4552 8.57129 20.4697V20.3955C8.57138 19.4076 8.9535 18.4768 9.64844 17.7803L17.7188 9.6543Z" fill="white" stroke="#FFC90C"/>
<defs>
<filter id="filter0_d_133_702" x="0" y="0" width="40" height="43" filterUnits="userSpaceOnUse" color-interpolation-filters="sRGB">
<feFlood flood-opacity="0" result="BackgroundImageFix"/>
<feColorMatrix in="SourceAlpha" type="matrix" values="0 0 0 0 0 0 0 0 0 0 0 0 0 0 0 0 0 0 127 0" result="hardAlpha"/>
<feOffset dy="3"/>
<feComposite in2="hardAlpha" operator="out"/>
<feColorMatrix type="matrix" values="0 0 0 0 1 0 0 0 0 0.801083 0 0 0 0 0.0958334 0 0 0 1 0"/>
<feBlend mode="normal" in2="BackgroundImageFix" result="effect1_dropShadow_133_702"/>
<feBlend mode="normal" in="SourceGraphic" in2="effect1_dropShadow_133_702" result="shape"/>
</filter>
</defs>
</svg>
