<svg xmlns="http://www.w3.org/2000/svg" width="52" height="184" viewBox="0 0 52 184">
	<path fill="#2A2620" d="M37.4,184H14.6C6.5,184,0,177.3,0,169V0h52v169C52,177.3,45.5,184,37.4,184z"/>
	<path fill="#413930" d="M31.1,161.1H20.9c-5.9,0-10.8-5-10.8-11.1V3.6H42V150C41.9,156.1,37.1,161.1,31.1,161.1z"/>
	<path fill="#413930" d="M32,163.1H20.1c-9.3,0-12.6,5.7-12.6,10.9c0,3,2.4,5.4,5.5,5.4h26c3,0,5.5-2.4,5.5-5.4
		C44.5,168.8,41.3,163.1,32,163.1z"/>
	<path class="key-pressed" fill="#006FDA" opacity="0" d="M37.4,184H14.6C6.5,184,0,177.3,0,169V0h52v169C52,177.3,45.5,184,37.4,184z"/>
</svg>
