<svg width="40" height="43" viewBox="0 0 40 43" fill="none" xmlns="http://www.w3.org/2000/svg">
<g filter="url(#filter0_d_151_1009)">
<circle cx="20" cy="20" r="20" fill="#FF4672"/>
<circle cx="20" cy="20" r="18.5" stroke="white" stroke-width="3"/>
</g>
<mask id="path-3-inside-1_151_1009" fill="white">
<path d="M11.1197 11.9274C12.3852 10.6085 14.4805 10.5652 15.7994 11.8307L20.023 15.8834L24.2466 11.8307C25.5655 10.5652 27.6608 10.6085 28.9263 11.9274C30.1914 13.2461 30.148 15.3406 28.8296 16.6061L24.8023 20.4694L29.0279 24.524C30.3464 25.7894 30.3896 27.8839 29.1245 29.2028C27.859 30.5216 25.7637 30.5649 24.4449 29.2994L20.023 25.0563L15.6011 29.2994C14.2822 30.5649 12.1869 30.5216 10.9214 29.2028C9.65609 27.8839 9.6993 25.7895 11.0181 24.524L15.2427 20.4694L11.2163 16.6061C9.89767 15.3406 9.85429 13.2462 11.1197 11.9274Z"/>
</mask>
<path d="M11.1197 11.9274C12.3852 10.6085 14.4805 10.5652 15.7994 11.8307L20.023 15.8834L24.2466 11.8307C25.5655 10.5652 27.6608 10.6085 28.9263 11.9274C30.1914 13.2461 30.148 15.3406 28.8296 16.6061L24.8023 20.4694L29.0279 24.524C30.3464 25.7894 30.3896 27.8839 29.1245 29.2028C27.859 30.5216 25.7637 30.5649 24.4449 29.2994L20.023 25.0563L15.6011 29.2994C14.2822 30.5649 12.1869 30.5216 10.9214 29.2028C9.65609 27.8839 9.6993 25.7895 11.0181 24.524L15.2427 20.4694L11.2163 16.6061C9.89767 15.3406 9.85429 13.2462 11.1197 11.9274Z" fill="white"/>
<path d="M11.1197 11.9274L10.3981 11.235L10.3981 11.235L11.1197 11.9274ZM15.7994 11.8307L16.4917 11.1091L16.4917 11.1091L15.7994 11.8307ZM20.023 15.8834L19.3306 16.605L20.023 17.2693L20.7153 16.605L20.023 15.8834ZM24.2466 11.8307L23.5543 11.1091L23.5543 11.1091L24.2466 11.8307ZM28.9263 11.9274L29.6479 11.2351L29.6479 11.235L28.9263 11.9274ZM28.8296 16.6061L29.5219 17.3277L29.5221 17.3275L28.8296 16.6061ZM24.8023 20.4694L24.11 19.7477L23.3578 20.4692L24.1099 21.1909L24.8023 20.4694ZM29.0279 24.524L29.7203 23.8026L29.7202 23.8025L29.0279 24.524ZM29.1245 29.2028L29.8461 29.8951L29.8462 29.895L29.1245 29.2028ZM24.4449 29.2994L23.7525 30.021L23.7525 30.021L24.4449 29.2994ZM20.023 25.0563L20.7154 24.3347L20.023 23.6703L19.3306 24.3347L20.023 25.0563ZM15.6011 29.2994L16.2935 30.021L16.2935 30.021L15.6011 29.2994ZM10.9214 29.2028L10.1998 29.8951L10.1999 29.8951L10.9214 29.2028ZM11.0181 24.524L11.7105 25.2456L11.7105 25.2455L11.0181 24.524ZM15.2427 20.4694L15.9352 21.1908L16.687 20.4693L15.9351 19.7478L15.2427 20.4694ZM11.2163 16.6061L10.5239 17.3276L10.524 17.3276L11.2163 16.6061ZM11.1197 11.9274L11.8412 12.6197C12.7244 11.6993 14.1866 11.6691 15.107 12.5522L15.7994 11.8307L16.4917 11.1091C14.7743 9.46124 12.046 9.51766 10.3981 11.235L11.1197 11.9274ZM15.7994 11.8307L15.107 12.5522L19.3306 16.605L20.023 15.8834L20.7153 15.1619L16.4917 11.1091L15.7994 11.8307ZM20.023 15.8834L20.7153 16.605L24.939 12.5522L24.2466 11.8307L23.5543 11.1091L19.3306 15.1619L20.023 15.8834ZM24.2466 11.8307L24.939 12.5522C25.8593 11.6691 27.3216 11.6993 28.2047 12.6197L28.9263 11.9274L29.6479 11.235C28 9.51766 25.2716 9.46124 23.5543 11.1091L24.2466 11.8307ZM28.9263 11.9274L28.2047 12.6196C29.0874 13.5398 29.0572 15.0015 28.1371 15.8846L28.8296 16.6061L29.5221 17.3275C31.2387 15.6798 31.2953 12.9524 29.6479 11.2351L28.9263 11.9274ZM28.8296 16.6061L28.1374 15.8844L24.11 19.7477L24.8023 20.4694L25.4945 21.191L29.5219 17.3277L28.8296 16.6061ZM24.8023 20.4694L24.1099 21.1909L28.3355 25.2456L29.0279 24.524L29.7202 23.8025L25.4946 19.7478L24.8023 20.4694ZM29.0279 24.524L28.3354 25.2455C29.2555 26.1285 29.2857 27.5902 28.4029 28.5105L29.1245 29.2028L29.8462 29.895C31.4934 28.1777 31.4372 25.4503 29.7203 23.8026L29.0279 24.524ZM29.1245 29.2028L28.403 28.5104C27.5199 29.4308 26.0576 29.461 25.1372 28.5779L24.4449 29.2994L23.7525 30.021C25.4699 31.6689 28.1982 31.6125 29.8461 29.8951L29.1245 29.2028ZM24.4449 29.2994L25.1372 28.5779L20.7154 24.3347L20.023 25.0563L19.3306 25.7778L23.7525 30.021L24.4449 29.2994ZM20.023 25.0563L19.3306 24.3347L14.9087 28.5779L15.6011 29.2994L16.2935 30.021L20.7154 25.7778L20.023 25.0563ZM15.6011 29.2994L14.9088 28.5779C13.9884 29.461 12.5261 29.4308 11.643 28.5104L10.9214 29.2028L10.1999 29.8951C11.8477 31.6125 14.5761 31.6689 16.2935 30.021L15.6011 29.2994ZM10.9214 29.2028L11.643 28.5105C10.76 27.59 10.7902 26.1286 11.7105 25.2456L11.0181 24.524L10.3257 23.8025C8.60841 25.4503 8.5522 28.1777 10.1998 29.8951L10.9214 29.2028ZM11.0181 24.524L11.7105 25.2455L15.9352 21.1908L15.2427 20.4694L14.5503 19.7479L10.3257 23.8026L11.0181 24.524ZM15.2427 20.4694L15.9351 19.7478L11.9087 15.8845L11.2163 16.6061L10.524 17.3276L14.5504 21.1909L15.2427 20.4694ZM11.2163 16.6061L11.9088 15.8846C10.9885 15.0014 10.9583 13.54 11.8412 12.6197L11.1197 11.9274L10.3981 11.235C8.75031 12.9524 8.80688 15.6798 10.5239 17.3276L11.2163 16.6061Z" fill="#E90038" mask="url(#path-3-inside-1_151_1009)"/>
<defs>
<filter id="filter0_d_151_1009" x="0" y="0" width="40" height="43" filterUnits="userSpaceOnUse" color-interpolation-filters="sRGB">
<feFlood flood-opacity="0" result="BackgroundImageFix"/>
<feColorMatrix in="SourceAlpha" type="matrix" values="0 0 0 0 0 0 0 0 0 0 0 0 0 0 0 0 0 0 127 0" result="hardAlpha"/>
<feOffset dy="3"/>
<feComposite in2="hardAlpha" operator="out"/>
<feColorMatrix type="matrix" values="0 0 0 0 1 0 0 0 0 0.15 0 0 0 0 0.352162 0 0 0 1 0"/>
<feBlend mode="normal" in2="BackgroundImageFix" result="effect1_dropShadow_151_1009"/>
<feBlend mode="normal" in="SourceGraphic" in2="effect1_dropShadow_151_1009" result="shape"/>
</filter>
</defs>
</svg>
