<svg width="40" height="43" viewBox="0 0 40 43" fill="none" xmlns="http://www.w3.org/2000/svg">
<g filter="url(#filter0_d_298_477)">
<circle cx="20" cy="20" r="20" fill="#FFDB0A"/>
<circle cx="20" cy="20" r="18.5" stroke="white" stroke-width="3"/>
</g>
<mask id="path-3-outside-1_298_477" maskUnits="userSpaceOnUse" x="11.0869" y="7.00781" width="17" height="25" fill="black">
<rect fill="white" x="11.0869" y="7.00781" width="17" height="25"/>
<path d="M17.032 23.3281C17.0613 19.6953 18.0281 18.5527 19.7859 17.4688C21.0457 16.6484 22.0125 15.7402 22.0125 14.3926C22.0125 12.9277 20.8699 11.9609 19.4637 11.9609C18.0867 11.9609 16.827 12.8691 16.7684 14.5977H12.6082C12.6961 10.4668 15.743 8.50391 19.493 8.50391C23.5652 8.50391 26.4656 10.6426 26.4656 14.2461C26.4656 16.6484 25.2352 18.2012 23.3016 19.3438C21.6609 20.3398 20.9285 21.2773 20.8992 23.3281V23.6504H17.032V23.3281ZM19.0535 30.2715C17.6766 30.2715 16.5633 29.1582 16.5926 27.8105C16.5633 26.4629 17.6766 25.3789 19.0535 25.3789C20.3426 25.3789 21.4852 26.4629 21.4852 27.8105C21.4852 29.1582 20.3426 30.2715 19.0535 30.2715Z"/>
</mask>
<path d="M17.032 23.3281C17.0613 19.6953 18.0281 18.5527 19.7859 17.4688C21.0457 16.6484 22.0125 15.7402 22.0125 14.3926C22.0125 12.9277 20.8699 11.9609 19.4637 11.9609C18.0867 11.9609 16.827 12.8691 16.7684 14.5977H12.6082C12.6961 10.4668 15.743 8.50391 19.493 8.50391C23.5652 8.50391 26.4656 10.6426 26.4656 14.2461C26.4656 16.6484 25.2352 18.2012 23.3016 19.3438C21.6609 20.3398 20.9285 21.2773 20.8992 23.3281V23.6504H17.032V23.3281ZM19.0535 30.2715C17.6766 30.2715 16.5633 29.1582 16.5926 27.8105C16.5633 26.4629 17.6766 25.3789 19.0535 25.3789C20.3426 25.3789 21.4852 26.4629 21.4852 27.8105C21.4852 29.1582 20.3426 30.2715 19.0535 30.2715Z" fill="white"/>
<path d="M17.032 23.3281L16.032 23.3201V23.3281H17.032ZM19.7859 17.4688L20.3108 18.3199L20.3213 18.3135L20.3316 18.3067L19.7859 17.4688ZM16.7684 14.5977V15.5977H17.735L17.7678 14.6315L16.7684 14.5977ZM12.6082 14.5977L11.6084 14.5764L11.5867 15.5977H12.6082V14.5977ZM23.3016 19.3438L22.7928 18.4828L22.7826 18.489L23.3016 19.3438ZM20.8992 23.3281L19.8993 23.3138L19.8992 23.321V23.3281H20.8992ZM20.8992 23.6504V24.6504H21.8992V23.6504H20.8992ZM17.032 23.6504H16.032V24.6504H17.032V23.6504ZM16.5926 27.8105L17.5923 27.8323L17.5928 27.8105L17.5923 27.7888L16.5926 27.8105ZM17.032 23.3281L18.032 23.3362C18.0461 21.5916 18.2872 20.583 18.6439 19.9119C18.9882 19.2638 19.4967 18.822 20.3108 18.3199L19.7859 17.4688L19.2611 16.6176C18.3174 17.1995 17.4635 17.871 16.8777 18.9734C16.3042 20.0527 16.0473 21.4319 16.0321 23.3201L17.032 23.3281ZM19.7859 17.4688L20.3316 18.3067C21.6113 17.4735 23.0125 16.3036 23.0125 14.3926H22.0125H21.0125C21.0125 15.1769 20.4801 15.8234 19.2403 16.6308L19.7859 17.4688ZM22.0125 14.3926H23.0125C23.0125 12.2992 21.3428 10.9609 19.4637 10.9609V11.9609V12.9609C20.3971 12.9609 21.0125 13.5563 21.0125 14.3926H22.0125ZM19.4637 11.9609V10.9609C18.5596 10.9609 17.6537 11.2595 16.9542 11.8864C16.2424 12.5244 15.8068 13.4474 15.7689 14.5638L16.7684 14.5977L17.7678 14.6315C17.7885 14.0194 18.0121 13.624 18.2891 13.3758C18.5783 13.1165 18.9908 12.9609 19.4637 12.9609V11.9609ZM16.7684 14.5977V13.5977H12.6082V14.5977V15.5977H16.7684V14.5977ZM12.6082 14.5977L13.608 14.6189C13.6463 12.8189 14.3154 11.5829 15.3073 10.7783C16.3248 9.95293 17.7805 9.50391 19.493 9.50391V8.50391V7.50391C17.4555 7.50391 15.5128 8.03633 14.0473 9.2251C12.5563 10.4346 11.658 12.2456 11.6084 14.5764L12.6082 14.5977ZM19.493 8.50391V9.50391C21.3647 9.50391 22.8688 9.99606 23.8826 10.8052C24.8725 11.5955 25.4656 12.7402 25.4656 14.2461H26.4656H27.4656C27.4656 12.1485 26.6085 10.4221 25.1302 9.24213C23.6757 8.08109 21.6935 7.50391 19.493 7.50391V8.50391ZM26.4656 14.2461H25.4656C25.4656 15.2644 25.2086 16.059 24.7744 16.716C24.3327 17.3845 23.6724 17.9631 22.7928 18.4828L23.3016 19.3438L23.8103 20.2047C24.8643 19.5819 25.7861 18.8127 26.443 17.8186C27.1074 16.8131 27.4656 15.6301 27.4656 14.2461H26.4656ZM23.3016 19.3438L22.7826 18.489C21.9108 19.0182 21.1655 19.5981 20.6527 20.4032C20.1306 21.2229 19.9157 22.1697 19.8993 23.3138L20.8992 23.3281L21.8991 23.3424C21.9121 22.4358 22.078 21.8884 22.3396 21.4776C22.6105 21.0523 23.0517 20.6653 23.8205 20.1985L23.3016 19.3438ZM20.8992 23.3281H19.8992V23.6504H20.8992H21.8992V23.3281H20.8992ZM20.8992 23.6504V22.6504H17.032V23.6504V24.6504H20.8992V23.6504ZM17.032 23.6504H18.032V23.3281H17.032H16.032V23.6504H17.032ZM19.0535 30.2715V29.2715C18.2165 29.2715 17.5757 28.5987 17.5923 27.8323L16.5926 27.8105L15.5928 27.7888C15.5509 29.7177 17.1366 31.2715 19.0535 31.2715V30.2715ZM16.5926 27.8105L17.5923 27.7888C17.576 27.0379 18.2005 26.3789 19.0535 26.3789V25.3789V24.3789C17.1526 24.3789 15.5505 25.8878 15.5928 27.8323L16.5926 27.8105ZM19.0535 25.3789V26.3789C19.8059 26.3789 20.4852 27.0307 20.4852 27.8105H21.4852H22.4852C22.4852 25.8951 20.8792 24.3789 19.0535 24.3789V25.3789ZM21.4852 27.8105H20.4852C20.4852 28.6059 19.7903 29.2715 19.0535 29.2715V30.2715V31.2715C20.8949 31.2715 22.4852 29.7105 22.4852 27.8105H21.4852Z" fill="#FFB213" mask="url(#path-3-outside-1_298_477)"/>
<defs>
<filter id="filter0_d_298_477" x="0" y="0" width="40" height="43" filterUnits="userSpaceOnUse" color-interpolation-filters="sRGB">
<feFlood flood-opacity="0" result="BackgroundImageFix"/>
<feColorMatrix in="SourceAlpha" type="matrix" values="0 0 0 0 0 0 0 0 0 0 0 0 0 0 0 0 0 0 127 0" result="hardAlpha"/>
<feOffset dy="3"/>
<feComposite in2="hardAlpha" operator="out"/>
<feColorMatrix type="matrix" values="0 0 0 0 1 0 0 0 0 0.698039 0 0 0 0 0.0745098 0 0 0 1 0"/>
<feBlend mode="normal" in2="BackgroundImageFix" result="effect1_dropShadow_298_477"/>
<feBlend mode="normal" in="SourceGraphic" in2="effect1_dropShadow_298_477" result="shape"/>
</filter>
</defs>
</svg>
