<svg width="40" height="43" viewBox="0 0 40 43" fill="none" xmlns="http://www.w3.org/2000/svg">
<g filter="url(#filter0_d_151_999)">
<circle cx="20" cy="20" r="20" fill="#4CDAFE"/>
<circle cx="20" cy="20" r="18.5" stroke="white" stroke-width="3"/>
</g>
<path d="M20.0312 9.5C20.9242 9.5 21.7611 9.85793 22.3848 10.5049L29.5352 17.8779C30.8214 19.2043 30.821 21.3539 29.5352 22.6797L29.5361 22.6807C29.0162 23.2195 28.3478 23.5557 27.625 23.6533V27.2451C27.6248 29.0277 26.2188 30.5 24.4531 30.5H15.5469C13.7812 30.5 12.3752 29.0277 12.375 27.2451V23.6533C11.6514 23.5553 10.9828 23.2184 10.4619 22.6797V22.6787C9.84107 22.0402 9.5 21.1847 9.5 20.2812C9.50006 19.3767 9.84206 18.5214 10.4678 17.877L17.6201 10.5C18.2438 9.85676 19.0785 9.50003 19.9678 9.5H20.0312ZM19.999 23.7422C19.3149 23.7422 18.8291 24.2454 18.8291 24.7842V26.6211C18.8292 27.16 19.315 27.663 19.999 27.6631C20.6839 27.6631 21.1699 27.1596 21.1699 26.6211V24.7842C21.1699 24.2455 20.6838 23.7422 19.999 23.7422Z" fill="white" stroke="#00ADE3"/>
<defs>
<filter id="filter0_d_151_999" x="0" y="0" width="40" height="43" filterUnits="userSpaceOnUse" color-interpolation-filters="sRGB">
<feFlood flood-opacity="0" result="BackgroundImageFix"/>
<feColorMatrix in="SourceAlpha" type="matrix" values="0 0 0 0 0 0 0 0 0 0 0 0 0 0 0 0 0 0 127 0" result="hardAlpha"/>
<feOffset dy="3"/>
<feComposite in2="hardAlpha" operator="out"/>
<feColorMatrix type="matrix" values="0 0 0 0 0.00392157 0 0 0 0 0.705882 0 0 0 0 0.929412 0 0 0 1 0"/>
<feBlend mode="normal" in2="BackgroundImageFix" result="effect1_dropShadow_151_999"/>
<feBlend mode="normal" in="SourceGraphic" in2="effect1_dropShadow_151_999" result="shape"/>
</filter>
</defs>
</svg>
