<svg width="24" height="20" viewBox="0 0 24 20" fill="none" xmlns="http://www.w3.org/2000/svg">
<path d="M0.5 6.00586C0.497933 4.73215 0.938128 3.49681 1.74609 2.51172C2.55416 1.52654 3.68032 0.852269 4.93066 0.604492C6.18087 0.356849 7.47862 0.550847 8.60156 1.15332C9.72464 1.75588 10.6036 2.72986 11.0879 3.9082L11.0908 3.91602C11.1674 4.09361 11.2945 4.24529 11.4561 4.35156C11.6176 4.45775 11.8067 4.51465 12 4.51465C12.1933 4.51465 12.3824 4.45775 12.5439 4.35156C12.6652 4.27179 12.7672 4.16653 12.8428 4.04395L12.9092 3.91602L12.9121 3.90918C13.3279 2.90278 14.0337 2.04265 14.9395 1.4375C15.7886 0.870169 16.7778 0.55067 17.7959 0.513672L18 0.509766C19.4588 0.509766 20.8582 1.08921 21.8896 2.12012C22.9209 3.15092 23.4999 4.54922 23.5 6.00684C23.5 7.03662 23.101 8.17467 22.4072 9.36523C21.7161 10.5511 20.754 11.7538 19.6768 12.9023C17.5223 15.1994 14.9553 17.2347 13.3262 18.4424C12.5305 19.0322 11.4695 19.0322 10.6738 18.4424C9.04473 17.2347 6.47765 15.1994 4.32324 12.9023C3.24601 11.7538 2.28388 10.5511 1.59277 9.36523C0.898963 8.17467 0.5 7.03662 0.5 6.00684V6.00586Z" fill="#FC0757" stroke="white"/>
</svg>
