<svg width="40" height="43" viewBox="0 0 40 43" fill="none" xmlns="http://www.w3.org/2000/svg">
<g filter="url(#filter0_d_190_1051)">
<circle cx="20" cy="20" r="20" fill="#FFDB0A"/>
<circle cx="20" cy="20" r="18.5" stroke="white" stroke-width="3"/>
</g>
<path d="M21.0381 9.37305C22.5043 8.19 24.5493 8.30753 25.7744 9.78418C26.9764 11.233 26.8564 13.254 25.3662 14.4648L25.3672 14.4658L19.2451 19.6543L25.4717 24.8428H25.4727C26.96 26.0429 27.1069 28.1878 25.8809 29.541L25.8818 29.542C25.0742 30.471 24.1151 30.7372 23.1982 30.7373C22.3766 30.7373 21.6933 30.4603 21.043 29.9473L21.0312 29.9375L11.8105 22.209C10.972 21.6356 10.5869 20.6749 10.5869 19.6582C10.587 18.5921 11.0053 17.7719 11.8037 17.1143L21.0312 9.37891L21.0381 9.37305Z" fill="white" stroke="#FFB213"/>
<defs>
<filter id="filter0_d_190_1051" x="0" y="0" width="40" height="43" filterUnits="userSpaceOnUse" color-interpolation-filters="sRGB">
<feFlood flood-opacity="0" result="BackgroundImageFix"/>
<feColorMatrix in="SourceAlpha" type="matrix" values="0 0 0 0 0 0 0 0 0 0 0 0 0 0 0 0 0 0 127 0" result="hardAlpha"/>
<feOffset dy="3"/>
<feComposite in2="hardAlpha" operator="out"/>
<feColorMatrix type="matrix" values="0 0 0 0 1 0 0 0 0 0.698039 0 0 0 0 0.0745098 0 0 0 1 0"/>
<feBlend mode="normal" in2="BackgroundImageFix" result="effect1_dropShadow_190_1051"/>
<feBlend mode="normal" in="SourceGraphic" in2="effect1_dropShadow_190_1051" result="shape"/>
</filter>
</defs>
</svg>
