<svg width="40" height="43" viewBox="0 0 40 43" fill="none" xmlns="http://www.w3.org/2000/svg">
<g filter="url(#filter0_d_296_420)">
<circle cx="20" cy="20" r="20" transform="matrix(-1 0 0 1 40 0)" fill="#FFDB0A"/>
<circle cx="20" cy="20" r="18.5" transform="matrix(-1 0 0 1 40 0)" stroke="white" stroke-width="3"/>
</g>
<path d="M18.9619 9.37305C17.4957 8.19 15.4507 8.30753 14.2256 9.78418C13.0236 11.233 13.1436 13.254 14.6338 14.4648L14.6328 14.4658L20.7549 19.6543L14.5283 24.8428H14.5273C13.04 26.0429 12.8931 28.1878 14.1191 29.541L14.1182 29.542C14.9258 30.471 15.8849 30.7372 16.8018 30.7373C17.6234 30.7373 18.3067 30.4603 18.957 29.9473L18.9688 29.9375L28.1895 22.209C29.028 21.6356 29.4131 20.6749 29.4131 19.6582C29.413 18.5921 28.9947 17.7719 28.1963 17.1143L18.9688 9.37891L18.9619 9.37305Z" fill="white" stroke="#FFB213"/>
<defs>
<filter id="filter0_d_296_420" x="0" y="0" width="40" height="43" filterUnits="userSpaceOnUse" color-interpolation-filters="sRGB">
<feFlood flood-opacity="0" result="BackgroundImageFix"/>
<feColorMatrix in="SourceAlpha" type="matrix" values="0 0 0 0 0 0 0 0 0 0 0 0 0 0 0 0 0 0 127 0" result="hardAlpha"/>
<feOffset dy="3"/>
<feComposite in2="hardAlpha" operator="out"/>
<feColorMatrix type="matrix" values="0 0 0 0 1 0 0 0 0 0.698039 0 0 0 0 0.0745098 0 0 0 1 0"/>
<feBlend mode="normal" in2="BackgroundImageFix" result="effect1_dropShadow_296_420"/>
<feBlend mode="normal" in="SourceGraphic" in2="effect1_dropShadow_296_420" result="shape"/>
</filter>
</defs>
</svg>
