<svg width="50" height="124" viewBox="0 0 50 124" fill="none" xmlns="http://www.w3.org/2000/svg">
<path d="M46.3109 25.2882C46.3109 35.5693 36.7584 43.9036 24.9745 43.9036C13.1907 43.9036 3.63818 35.5694 3.63818 25.2882C3.63818 15.0071 13.1907 6.67285 24.9745 6.67285C36.7054 6.67285 46.236 14.9354 46.3109 25.1698" fill="#E5E5E5"/>
<path d="M31.6237 30.3683C31.9893 32.1559 30.0041 34.0603 27.1897 34.622C24.3753 35.1837 21.7975 34.1899 21.4319 32.4023C21.0663 30.6146 23.0515 28.7102 25.8659 28.1485C28.6677 27.5894 31.2377 28.5718 31.6195 30.3477" fill="#E5E5E5"/>
<path d="M21.8501 123.104C19.0904 118.369 19.3307 112.657 17.9662 107.478C14.0154 84.9316 8.23295 62.7653 2.96941 40.501C1.49309 34.6862 -1.39884 28.6901 0.792792 22.6433C4.57187 11.1665 15.581 2.68966 27.3994 0.400609C33.0396 -1.27923 38.1125 2.63773 41.8937 6.31983C51.9023 14.7227 51.3225 30.7747 43.3723 40.326C37.4461 47.4415 27.2399 49.5138 18.3614 48.1461C16.1311 47.1039 11.096 46.4145 13.6432 50.3245C20.1985 71.8074 25.958 93.6889 28.0571 116.089C28.1046 119.42 26.5255 125.501 21.8501 123.103V123.104ZM29.3589 40.6463C36.4177 40.1432 41.4817 34.2053 43.2879 27.8333C45.1564 23.2024 45.0589 17.2074 40.7664 13.9034C36.5291 10.6523 31.2961 8.16743 25.8654 7.99499C19.8644 7.6945 14.6583 11.5294 10.4859 15.3149C6.87692 19.9816 3.61625 26.844 7.41803 32.34C12.3537 38.8081 21.1625 43.1684 29.3589 40.6463ZM21.6076 35.4474C18.0192 33.4484 16.5401 27.4234 22.5037 28.7137C28.4877 26.2489 36.2326 23.743 32.3217 32.2443C30.904 36.1626 25.3896 36.8548 21.879 35.5854L21.6396 35.4638L21.6076 35.4474ZM29.0625 32.3763C35.9532 24.4903 15.2448 32.152 25.1279 33.4076C26.4878 33.2828 27.7814 32.8137 29.0625 32.3763ZM16.7816 22.79C12.9151 18.1669 23.6992 18.7961 19.3834 23.2068C18.6534 23.9639 17.3105 23.6018 16.7816 22.79ZM25.4072 20.5713C22.178 14.1899 35.4073 17.4074 28.7254 21.2252C27.6061 21.5423 26.2892 21.3612 25.4072 20.5713Z" fill="black"/>
</svg>
