<svg xmlns="http://www.w3.org/2000/svg" width="490"
	 height="332" viewBox="0 0 490 332">
<g>
	<path fill="#2A2620" d="M70,4H0v311c0,9.4,7.5,17,16.8,17h36.3c9.3,0,16.8-7.6,16.8-17L70,4L70,4z"/>
	<path fill="#FFFFFF" d="M68.4,4H1.6v302c0,7,5.5,12.6,12.4,12.6h41.9c6.9,0,12.4-5.6,12.4-12.6L68.4,4L68.4,4z"/>
	<path fill="#EBE1CC" d="M55.5,309.7H14.4c-6.4,0-8.5-0.6-11.4-3.4c0,0,1.9,10.3,11.9,10.3H55c10,0,11.9-10.3,11.9-10.3
		C63.9,309.2,61.9,309.7,55.5,309.7z"/>
	<path fill="#EBE1CC" d="M66.1,6.1H3.9v12.8h62.1V6.1z"/>
	<path class="key-pressed" opacity="0" fill="#FB00FF" d="M68.4,4H1.6v302c0,7,5.5,12.6,12.4,12.6h41.9c6.9,0,12.4-5.6,12.4-12.6L68.4,4L68.4,4z"/>
</g>
<g>
	<path fill="#2A2620" d="M140,4H70v311c0,9.4,7.5,17,16.8,17h36.4c9.3,0,16.8-7.6,16.8-17V4z"/>
	<path fill="#FFFFFF" d="M138.5,4H71.5v302c0,7,5.5,12.6,12.5,12.6h41.9c6.9,0,12.5-5.6,12.5-12.6L138.5,4L138.5,4z"/>
	<path fill="#EBE1CC" d="M125.6,309.7H84.3c-6.4,0-8.5-0.6-11.4-3.4c0,0,1.9,10.3,12,10.3h40.1c10,0,12-10.3,12-10.3
		C134.1,309.2,132,309.7,125.6,309.7z"/>
	<path fill="#EBE1CC" d="M136.1,6.1H73.9v12.8h62.2V6.1z"/>
	<path class="key-pressed" opacity="0" fill="#EF0034" d="M138.5,4H71.5v302c0,7,5.5,12.6,12.5,12.6h41.9c6.9,0,12.5-5.6,12.5-12.6L138.5,4L138.5,4z"/>
</g>
<g>
	<path fill="#2A2620" d="M210,4h-70v311c0,9.4,7.5,17,16.8,17h36.3c9.3,0,16.8-7.6,16.8-17L210,4L210,4z"/>
	<path fill="#FFFFFF" d="M208.4,4h-66.8v302c0,7,5.5,12.6,12.4,12.6h41.9c6.9,0,12.4-5.6,12.4-12.6L208.4,4L208.4,4z"/>
	<path fill="#EBE1CC" d="M195.5,309.7h-41.2c-6.4,0-8.5-0.6-11.4-3.4c0,0,1.9,10.3,11.9,10.3H195c10,0,11.9-10.3,11.9-10.3
		C204,309.2,202,309.7,195.5,309.7z"/>
	<path fill="#EBE1CC" d="M206.1,6.1h-62.1v12.8h62.1V6.1z"/>
	<path class="key-pressed" opacity="0" fill="#FF8800" d="M208.4,4h-66.8v302c0,7,5.5,12.6,12.4,12.6h41.9c6.9,0,12.4-5.6,12.4-12.6L208.4,4L208.4,4z"/>
</g>
<g>
	<path fill="#2A2620" d="M280,4h-70v311c0,9.4,7.5,17,16.8,17h36.3c9.3,0,16.8-7.6,16.8-17L280,4L280,4z"/>
	<path fill="#FFFFFF" d="M278.4,4h-66.8v302c0,7,5.5,12.6,12.4,12.6h41.9c6.9,0,12.4-5.6,12.4-12.6L278.4,4L278.4,4z"/>
	<path fill="#EBE1CC" d="M265.5,309.7h-41.2c-6.4,0-8.5-0.6-11.4-3.4c0,0,1.9,10.3,11.9,10.3H265c10,0,11.9-10.3,11.9-10.3
		C274,309.2,272,309.7,265.5,309.7z"/>
	<path fill="#EBE1CC" d="M276.1,6.1h-62.1v12.8h62.1V6.1z"/>
	<path class="key-pressed" opacity="0" fill="#FFF400" d="M278.4,4h-66.8v302c0,7,5.5,12.6,12.4,12.6h41.9c6.9,0,12.4-5.6,12.4-12.6L278.4,4L278.4,4z"/>
</g>
<g>
	<path fill="#2A2620" d="M350,4h-70v311c0,9.4,7.5,17,16.8,17h36.3c9.3,0,16.8-7.6,16.8-17L350,4L350,4z"/>
	<path fill="#FFFFFF" d="M348.4,4h-66.8v302c0,7,5.5,12.6,12.4,12.6h41.9c6.9,0,12.4-5.6,12.4-12.6L348.4,4L348.4,4z"/>
	<path fill="#EBE1CC" d="M335.5,309.7h-41.2c-6.4,0-8.5-0.6-11.4-3.4c0,0,1.9,10.3,11.9,10.3H335c10,0,11.9-10.3,11.9-10.3
		C344,309.2,342,309.7,335.5,309.7z"/>
	<path fill="#EBE1CC" d="M346.1,6.1h-62.1v12.8h62.1V6.1z"/>
	<path class="key-pressed" opacity="0" fill="#65DD0A" d="M348.4,4h-66.8v302c0,7,5.5,12.6,12.4,12.6h41.9c6.9,0,12.4-5.6,12.4-12.6L348.4,4L348.4,4z"/>
</g>
<g>
	<path fill="#2A2620" d="M420,4h-70v311c0,9.4,7.5,17,16.8,17h36.3c9.3,0,16.8-7.6,16.8-17L420,4L420,4z"/>
	<path fill="#FFFFFF" d="M418.4,4h-66.8v302c0,7,5.5,12.6,12.4,12.6h41.9c6.9,0,12.4-5.6,12.4-12.6L418.4,4L418.4,4z"/>
	<path fill="#EBE1CC" d="M405.6,309.7h-41.2c-6.4,0-8.5-0.6-11.4-3.4c0,0,1.9,10.3,11.9,10.3h40c10,0,11.9-10.3,11.9-10.3
		C414,309.2,411.9,309.7,405.6,309.7z"/>
	<path fill="#EBE1CC" d="M416.1,6.1h-62.1v12.8h62.1V6.1z"/>
	<path class="key-pressed" opacity="0" fill="#00D0FF" d="M418.4,4h-66.8v302c0,7,5.5,12.6,12.4,12.6h41.9c6.9,0,12.4-5.6,12.4-12.6L418.4,4L418.4,4z"/>
</g>
<g>
	<path fill="#2A2620" d="M490,4h-70v311c0,9.4,7.5,17,16.8,17h36.4c9.3,0,16.8-7.6,16.8-17V4z"/>
	<path fill="#FFFFFF" d="M488.4,4h-66.8v302c0,7,5.5,12.6,12.4,12.6h41.9c6.9,0,12.4-5.6,12.4-12.6L488.4,4L488.4,4z"/>
	<path fill="#EBE1CC" d="M475.5,309.7h-41.2c-6.4,0-8.5-0.6-11.4-3.4c0,0,1.9,10.3,11.9,10.3H475c10,0,11.9-10.3,11.9-10.3
		C484,309.2,482,309.7,475.5,309.7z"/>
	<path fill="#EBE1CC" d="M486.1,6.1h-62.1v12.8h62.1V6.1z"/>
	<path class="key-pressed" opacity="0" fill="#6625FF" d="M488.4,4h-66.8v302c0,7,5.5,12.6,12.4,12.6h41.9c6.9,0,12.4-5.6,12.4-12.6L488.4,4L488.4,4z"/>
</g>
<g>
	<path fill="#2A2620" d="M81.4,184.3H58.6c-8.1,0-14.6-6.7-14.6-15V0.3h52v169C96,177.6,89.5,184.3,81.4,184.3z"/>
	<path fill="#413930" d="M75.1,161.4H64.9c-5.9,0-10.8-5-10.8-11.1V3.9H86v146.4C85.9,156.4,81.1,161.4,75.1,161.4z"/>
	<path fill="#413930" d="M76,163.4H64.1c-9.3,0-12.6,5.7-12.6,10.9c0,3,2.4,5.4,5.5,5.4h26c3,0,5.5-2.4,5.5-5.4
		C88.5,169.1,85.3,163.4,76,163.4z"/>
</g>
<g>
	<path fill="#2A2620" d="M151.4,184.3h-22.8c-8.1,0-14.6-6.7-14.6-15V0.3h52v169C166,177.6,159.5,184.3,151.4,184.3z"/>
	<path fill="#413930" d="M145.1,161.4h-10.2c-5.9,0-10.8-5-10.8-11.1V3.9H156v146.4C155.9,156.4,151.1,161.4,145.1,161.4z"/>
	<path fill="#413930" d="M146,163.4h-11.9c-9.3,0-12.6,5.7-12.6,10.9c0,3,2.4,5.4,5.5,5.4h26c3,0,5.5-2.4,5.5-5.4
		C158.5,169.1,155.3,163.4,146,163.4z"/>
</g>
<g>
	<path fill="#2A2620" d="M291.4,184.3h-22.8c-8.1,0-14.6-6.7-14.6-15V0.3h52v169C306,177.6,299.5,184.3,291.4,184.3z"/>
	<path fill="#413930" d="M285.1,161.4h-10.2c-5.9,0-10.8-5-10.8-11.1V3.9H296v146.4C295.9,156.4,291.1,161.4,285.1,161.4z"/>
	<path fill="#413930" d="M286,163.4h-11.9c-9.3,0-12.6,5.7-12.6,10.9c0,3,2.4,5.4,5.5,5.4h26c3,0,5.5-2.4,5.5-5.4
		C298.5,169.1,295.3,163.4,286,163.4z"/>
</g>
<g>
	<path fill="#2A2620" d="M361.4,184.3h-22.8c-8.1,0-14.6-6.7-14.6-15V0.3h52v169C376,177.6,369.5,184.3,361.4,184.3z"/>
	<path fill="#413930" d="M355.1,161.4h-10.2c-5.9,0-10.8-5-10.8-11.1V3.9H366v146.4C365.9,156.4,361.1,161.4,355.1,161.4z"/>
	<path fill="#413930" d="M356,163.4h-11.9c-9.3,0-12.6,5.7-12.6,10.9c0,3,2.4,5.4,5.5,5.4h26c3,0,5.5-2.4,5.5-5.4
		C368.5,169.1,365.3,163.4,356,163.4z"/>
</g>
<g>
	<path fill="#2A2620" d="M431.4,184.3h-22.8c-8.1,0-14.6-6.7-14.6-15V0.3h52v169C446,177.6,439.5,184.3,431.4,184.3z"/>
	<path fill="#413930" d="M425.1,161.4h-10.2c-5.9,0-10.8-5-10.8-11.1V3.9H436v146.4C435.9,156.4,431.1,161.4,425.1,161.4z"/>
	<path fill="#413930" d="M426,163.4h-11.9c-9.3,0-12.6,5.7-12.6,10.9c0,3,2.4,5.4,5.5,5.4h26c3,0,5.5-2.4,5.5-5.4
		C438.5,169.1,435.3,163.4,426,163.4z"/>
</g>
</svg>