<svg width="40" height="43" viewBox="0 0 40 43" fill="none" xmlns="http://www.w3.org/2000/svg">
<g filter="url(#filter0_d_151_1005)">
<circle cx="20" cy="20" r="20" fill="#92F200"/>
<circle cx="20" cy="20" r="18.5" stroke="white" stroke-width="3"/>
</g>
<path d="M20.2236 16.3184C20.2233 16.3207 20.223 16.3238 20.2227 16.3271C20.2238 16.3179 20.2252 16.3109 20.2256 16.3086V16.3076L20.2236 16.3184ZM30.5 21.2285C30.5 27.0181 25.7908 31.727 20.001 31.7275H20C14.2104 31.7273 9.50025 27.0189 9.5 21.2295C9.5 15.4404 14.2102 10.7307 20 10.7305C20.0723 10.7305 20.1452 10.7329 20.2178 10.7344V10.2842L20.2656 10.2471C20.4488 9.30684 21.2682 8.59082 22.2686 8.59082C22.6973 8.59085 23.0886 8.72546 23.4121 8.94629H23.4629L23.6094 9.0918L23.6533 9.13574C23.6936 9.17246 23.7336 9.21317 23.7734 9.25781L26.3691 11.8574C26.867 12.229 27.1952 12.8207 27.1953 13.4951C27.1953 14.0952 26.9327 14.6256 26.5303 14.9971L23.8418 17.6943L23.835 17.7002C23.4626 18.1469 22.9049 18.4424 22.2686 18.4424C21.3041 18.4423 20.4968 17.7757 20.2783 16.8789H20.2188V15.9717C20.1461 15.9687 20.0736 15.9648 20.001 15.9648C17.099 15.9648 14.7365 18.328 14.7363 21.2285C14.7363 24.1308 17.0989 26.4932 20.001 26.4932C22.9032 26.4932 25.2646 24.1308 25.2646 21.2285V21.1406C25.2567 21.0609 25.251 20.9785 25.251 20.8955C25.251 19.4473 26.4256 18.2754 27.873 18.2754C29.1953 18.2754 30.2861 19.256 30.4639 20.5293L30.5 20.543V21.2285Z" fill="white" stroke="#39BD01"/>
<defs>
<filter id="filter0_d_151_1005" x="0" y="0" width="40" height="43" filterUnits="userSpaceOnUse" color-interpolation-filters="sRGB">
<feFlood flood-opacity="0" result="BackgroundImageFix"/>
<feColorMatrix in="SourceAlpha" type="matrix" values="0 0 0 0 0 0 0 0 0 0 0 0 0 0 0 0 0 0 127 0" result="hardAlpha"/>
<feOffset dy="3"/>
<feComposite in2="hardAlpha" operator="out"/>
<feColorMatrix type="matrix" values="0 0 0 0 0.225553 0 0 0 0 0.741667 0 0 0 0 0.00309026 0 0 0 1 0"/>
<feBlend mode="normal" in2="BackgroundImageFix" result="effect1_dropShadow_151_1005"/>
<feBlend mode="normal" in="SourceGraphic" in2="effect1_dropShadow_151_1005" result="shape"/>
</filter>
</defs>
</svg>
