<svg width="40" height="43" viewBox="0 0 40 43" fill="none" xmlns="http://www.w3.org/2000/svg">
<g filter="url(#filter0_d_151_1002)">
<ellipse cx="20" cy="19.8431" rx="20" ry="19.8431" fill="#B169FA"/>
<path d="M20 1.5C30.2283 1.5 38.4998 9.72342 38.5 19.8428C38.5 29.9623 30.2284 38.1865 20 38.1865C9.77157 38.1865 1.5 29.9623 1.5 19.8428C1.5002 9.72342 9.7717 1.5 20 1.5Z" stroke="white" stroke-width="3"/>
</g>
<path d="M21.7617 8.51953C22.3251 8.51974 22.8227 8.90013 22.9619 9.44141L23.5742 11.8193L24.3184 12.2441L26.749 11.5869L26.7539 11.5859C27.2607 11.4543 27.7943 11.6403 28.0957 12.0654L28.1523 12.1533L28.1543 12.1562L30.3311 15.9082L30.3818 16.002C30.6092 16.4763 30.5038 17.0431 30.1055 17.4082L28.2861 19.0938L28.2822 19.8037L30.0811 21.5098C30.4933 21.8991 30.5844 22.5156 30.2949 23.0059L30.293 23.0088L28.0557 26.7305L28.0566 26.7314C27.7692 27.2183 27.1862 27.4446 26.6455 27.2891V27.2881L24.2236 26.6045L23.5732 26.9668L22.9619 29.3428C22.8227 29.884 22.3251 30.2644 21.7617 30.2646H17.3291C16.7656 30.2645 16.2681 29.884 16.1289 29.3428L15.5166 26.9668L14.8662 26.6045L12.4443 27.2881C11.9037 27.4434 11.3216 27.2182 11.0342 26.7314V26.7305L8.79785 23.0088L8.7959 23.0059C8.50646 22.5156 8.59654 21.8991 9.00879 21.5098L10.8076 19.8037L10.8037 19.0938L8.98242 17.4062L8.9834 17.4053C8.5605 17.0156 8.46935 16.3987 8.75879 15.9082H8.75977L10.9365 12.1562L10.9385 12.1533C11.2078 11.6972 11.7256 11.4742 12.2344 11.5635L12.3369 11.5859L12.3418 11.5869L14.7715 12.2441L15.5156 11.8193L16.1289 9.44141C16.2681 8.90012 16.7656 8.5197 17.3291 8.51953H21.7617ZM19.5449 15.8135C17.5043 15.8137 15.8577 17.4362 15.8574 19.3916C15.8574 21.3472 17.5042 22.9705 19.5449 22.9707C21.5859 22.9707 23.2334 21.3473 23.2334 19.3916C23.2331 17.4361 21.5857 15.8135 19.5449 15.8135Z" fill="white" stroke="#8014EE"/>
<defs>
<filter id="filter0_d_151_1002" x="0" y="0" width="40" height="42.686" filterUnits="userSpaceOnUse" color-interpolation-filters="sRGB">
<feFlood flood-opacity="0" result="BackgroundImageFix"/>
<feColorMatrix in="SourceAlpha" type="matrix" values="0 0 0 0 0 0 0 0 0 0 0 0 0 0 0 0 0 0 127 0" result="hardAlpha"/>
<feOffset dy="3"/>
<feComposite in2="hardAlpha" operator="out"/>
<feColorMatrix type="matrix" values="0 0 0 0 0.469182 0 0 0 0 0.180278 0 0 0 0 0.983333 0 0 0 1 0"/>
<feBlend mode="normal" in2="BackgroundImageFix" result="effect1_dropShadow_151_1002"/>
<feBlend mode="normal" in="SourceGraphic" in2="effect1_dropShadow_151_1002" result="shape"/>
</filter>
</defs>
</svg>
