<svg width="24" height="24" viewBox="0 0 24 24" fill="none" xmlns="http://www.w3.org/2000/svg">
<path d="M2.00299 11.7155C2.04033 9.87325 2.059 8.95214 2.67093 8.16362C2.78262 8.01969 2.9465 7.84869 3.08385 7.73273C3.83639 7.0974 4.82995 7.0974 6.81706 7.0974C7.527 7.0974 7.88198 7.0974 8.22035 7.00451C8.29067 6.98521 8.36024 6.96295 8.4289 6.9378C8.75936 6.81673 9.05574 6.60836 9.64851 6.1916C11.9871 4.54745 13.1565 3.72527 14.138 4.0824C14.3261 4.15087 14.5083 4.24971 14.671 4.37161C15.5194 5.00743 15.5839 6.48674 15.7128 9.44536C15.7606 10.5409 15.7931 11.4785 15.7931 12C15.7931 12.5215 15.7606 13.4591 15.7128 14.5546C15.5839 17.5132 15.5194 18.9926 14.671 19.6284C14.5083 19.7503 14.3261 19.8491 14.138 19.9176C13.1565 20.2747 11.9873 19.4526 9.64873 17.8085C9.05596 17.3917 8.75936 17.1833 8.4289 17.0622C8.36024 17.037 8.29067 17.0148 8.22035 16.9955C7.88198 16.9026 7.527 16.9026 6.81706 16.9026C4.82995 16.9026 3.83639 16.9026 3.08385 16.2673C2.9465 16.1513 2.78262 15.9803 2.67093 15.8364C2.059 15.0478 2.04033 14.1267 2.00299 12.2845C2.00103 12.1878 2 12.0928 2 12C2 11.9072 2.00103 11.8122 2.00299 11.7155Z" fill="#FFB213"/>
<path d="M19.4894 5.55217C19.782 5.29216 20.2169 5.33432 20.4607 5.64633C20.4606 5.64617 20.4606 5.64617 20.3944 5.70502L19.9309 6.11711L20.4607 5.64633L20.4618 5.64768L20.463 5.64919L20.4657 5.65273L20.4726 5.66182L20.492 5.68812C20.5074 5.70927 20.5274 5.7377 20.5514 5.77356C20.5994 5.84527 20.6634 5.94665 20.7378 6.07887C20.8867 6.34343 21.0769 6.7309 21.2643 7.25036C21.6396 8.29105 21.9999 9.85134 21.9999 12.0002C21.9999 14.1491 21.6396 15.7094 21.2643 16.7501C21.0769 17.2695 20.8867 17.657 20.7378 17.9216C20.6634 18.0538 20.5994 18.1552 20.5514 18.2269C20.5274 18.2627 20.5074 18.2912 20.492 18.3123L20.4726 18.3386L20.4657 18.3477L20.463 18.3513L20.4618 18.3528C20.4615 18.3531 20.4607 18.3541 19.9342 17.8862L20.4607 18.3541C20.2169 18.6661 19.782 18.7083 19.4894 18.4483C19.1982 18.1895 19.1577 17.729 19.3976 17.417L19.4008 17.4127L19.4118 17.3972C19.4165 17.3904 19.4222 17.3821 19.429 17.372C19.4564 17.3311 19.5002 17.2625 19.5551 17.1649C19.6648 16.9698 19.8194 16.6587 19.9769 16.2221C20.2912 15.3508 20.6206 13.9695 20.6206 12.0002C20.6206 10.0309 20.2912 8.64966 19.9769 7.77834C19.8194 7.34179 19.6648 7.03064 19.5551 6.83558C19.5002 6.738 19.4564 6.66932 19.429 6.62843C19.4153 6.60798 19.4057 6.59447 19.4008 6.58776L19.3976 6.58338L19.4894 5.55217Z" fill="#FFB213"/>
<path fill-rule="evenodd" clip-rule="evenodd" d="M18.6949 8.70162C18.51 8.34659 18.0901 8.21867 17.7571 8.41591C17.427 8.61148 17.3063 9.05328 17.4846 9.40683L17.4892 9.41687C17.4955 9.43098 17.5075 9.45914 17.5236 9.50193C17.5557 9.58744 17.6039 9.73189 17.6539 9.94003C17.7539 10.3559 17.8622 11.0298 17.8622 12.0003C17.8622 12.9709 17.7539 13.6448 17.6539 14.0606C17.6039 14.2688 17.5557 14.4132 17.5236 14.4987C17.5075 14.5415 17.4955 14.5697 17.4892 14.5838L17.4846 14.5938C17.3063 14.9474 17.427 15.3892 17.7571 15.5847C18.0901 15.782 18.51 15.6541 18.6949 15.299L18.0936 14.9427C18.6949 15.299 18.6954 15.2981 18.6956 15.2978L18.6978 15.2934L18.7014 15.2864L18.7102 15.2684C18.7169 15.2546 18.7251 15.2372 18.7345 15.2161C18.7533 15.1739 18.7772 15.1171 18.8042 15.045C18.8584 14.9007 18.9251 14.6958 18.99 14.4259C19.1199 13.8857 19.2415 13.0888 19.2415 12.0003C19.2415 10.9119 19.1199 10.115 18.99 9.57472C18.9251 9.30486 18.8584 9.1 18.8042 8.9557C18.7772 8.88359 18.7533 8.82672 18.7345 8.78453C18.7251 8.76344 18.7169 8.74603 18.7102 8.73223L18.7014 8.71424L18.6978 8.70726L18.6963 8.70428L18.6956 8.70291L18.6949 8.70162ZM18.0921 9.05876C18.6949 8.70162 18.6948 8.7013 18.6949 8.70162L18.0921 9.05876Z" fill="#FFB213"/>
</svg>
