<svg xmlns="http://www.w3.org/2000/svg" width="70" height="328" viewBox="0 0 70 328">
<style type="text/css">
	.st0{fill:#2A2620;}
	.st1{fill:#FFFFFF;}
	.st2{fill:#EBE1CC;}
	.st3{fill:#006FDA;fill-opacity:0;}
</style>
<g>
	<path fill="#2A2620" d="M70,0H0v311c0,9.4,7.5,17,16.8,17h36.3c9.3,0,16.8-7.6,16.8-17L70,0L70,0z"/>
	<path fill="#FFFFFF" d="M68.4,0H1.6v302c0,7,5.5,12.6,12.4,12.6h41.9c6.9,0,12.4-5.6,12.4-12.6L68.4,0L68.4,0z"/>
	<path fill="#EBE1CC" d="M55.5,305.7H14.4c-6.4,0-8.5-0.6-11.4-3.4c0,0,1.9,10.3,11.9,10.3H55c10,0,11.9-10.3,11.9-10.3
		C63.9,305.2,61.9,305.7,55.5,305.7z"/>
	<path fill="#EBE1CC" d="M66.1,2.1H3.9v12.8H66L66.1,2.1L66.1,2.1z"/>
	<path class="key-pressed" fill="#006FDA" opacity="0" d="M68.4,0H1.6v302c0,7,5.5,12.6,12.4,12.6h41.9c6.9,0,12.4-5.6,12.4-12.6L68.4,0L68.4,0z"/>
</g>
</svg>
